<?xml version="1.0" standalone="no"?>
<!DOCTYPE svg PUBLIC "-//W3C//DTD SVG 20010904//EN"
 "http://www.w3.org/TR/2001/REC-SVG-20010904/DTD/svg10.dtd">
<svg version="1.0" xmlns="http://www.w3.org/2000/svg"
 width="679.000000pt" height="679.000000pt" viewBox="0 0 679.000000 679.000000"
 preserveAspectRatio="xMidYMid meet">
<metadata>
Created by potrace 1.14, written by Peter Selinger 2001-2017
</metadata>
<g transform="translate(0.000000,679.000000) scale(0.100000,-0.100000)"
fill="#000000" stroke="none">
<path d="M2530 5399 c-208 -27 -436 -103 -687 -229 -258 -130 -382 -216 -818
-565 -203 -163 -400 -316 -437 -340 -81 -54 -155 -91 -164 -82 -3 3 -1 51 6
107 7 56 10 104 6 107 -3 4 -43 8 -89 11 -71 3 -88 0 -127 -20 -51 -26 -86
-79 -96 -145 -4 -27 3 -88 19 -175 14 -73 31 -179 37 -235 7 -57 18 -107 25
-113 7 -6 32 -17 56 -24 l44 -14 -42 -1 c-31 -1 -45 -6 -52 -20 -27 -49 -43
-380 -21 -421 9 -17 18 -19 74 -13 74 7 122 -5 71 -17 -16 -4 -46 -8 -65 -9
-19 -1 -58 -12 -86 -25 l-51 -24 -5 -108 c-4 -100 -8 -118 -48 -214 -36 -88
-44 -119 -48 -191 -3 -71 -1 -94 15 -130 27 -62 75 -114 129 -139 55 -27 189
-39 224 -20 23 12 23 13 16 148 l-7 135 28 -18 c32 -21 269 -212 485 -391 497
-414 888 -649 1301 -783 309 -101 569 -120 857 -64 137 26 548 25 705 -1 140
-24 398 -25 535 -3 196 33 472 129 670 234 144 76 325 197 518 347 467 363
864 646 903 646 11 0 8 -60 -7 -176 -6 -40 -4 -42 27 -53 41 -14 112 -14 163
0 25 7 61 31 94 64 78 74 79 103 19 342 -27 106 -51 227 -57 294 -7 63 -16
126 -22 141 -13 34 -51 47 -162 55 -63 5 -75 8 -56 15 14 5 41 6 60 3 20 -3
48 -1 63 4 27 11 27 11 27 118 1 60 5 128 9 152 13 66 10 69 -72 65 l-72 -3
80 10 c103 13 125 27 125 80 0 67 28 155 83 263 44 88 52 110 55 172 6 99 -23
155 -104 204 -57 34 -61 35 -166 35 -67 0 -111 -4 -118 -11 -9 -9 -9 -25 0
-65 6 -30 10 -82 8 -116 l-3 -62 -70 42 c-91 56 -284 206 -627 489 -400 330
-568 447 -813 564 -416 198 -866 238 -1260 112 -154 -50 -218 -53 -340 -19
-127 36 -231 60 -329 76 -97 16 -308 18 -416 4z m1680 -14 c230 -25 417 -76
605 -163 263 -123 469 -259 732 -484 331 -283 709 -570 836 -635 72 -36 160
-42 205 -13 59 37 78 118 42 177 -22 38 -62 60 -145 83 l-60 17 42 7 c77 14
175 -24 233 -90 32 -37 32 -38 28 -119 -8 -145 -55 -190 -198 -190 -77 0 -92
4 -160 36 -150 71 -379 238 -669 487 -392 336 -669 524 -946 641 -246 104
-394 138 -638 148 -138 6 -307 -6 -377 -26 -32 -9 -67 -70 -55 -97 7 -16 9
-14 15 13 4 18 13 40 20 48 18 21 56 19 81 -6 27 -27 21 -77 -15 -124 -51 -67
-141 -51 -177 30 -28 63 -19 111 32 168 49 56 97 76 229 92 142 17 183 17 340
0z m-1204 -25 c117 -21 151 -36 192 -86 101 -122 32 -279 -102 -234 -46 15
-76 53 -76 98 0 73 67 97 114 41 22 -26 26 -28 26 -11 0 11 -14 32 -31 46 -35
29 -33 29 -75 17 -24 -7 -43 -3 -85 15 -199 85 -592 38 -928 -109 -104 -46
-404 -213 -506 -280 -102 -68 -341 -255 -535 -416 -299 -250 -400 -319 -542
-368 -88 -31 -188 -35 -236 -9 -55 29 -73 69 -70 156 5 115 44 157 160 173 77
11 89 -4 20 -25 -81 -25 -112 -61 -112 -130 0 -44 4 -54 34 -84 45 -45 84 -45
195 3 127 54 164 80 531 377 532 432 581 467 830 591 308 154 533 228 790 259
68 8 306 -6 406 -24z m622 -57 c-49 -52 -63 -135 -32 -194 8 -17 13 -33 10
-36 -8 -8 -36 60 -37 89 -1 16 -4 12 -9 -12 -5 -22 -8 -28 -10 -15 -2 15 -4
12 -10 -10 l-8 -30 -1 27 c-1 30 -21 49 -22 21 0 -13 -3 -11 -10 7 -6 14 -8
35 -6 47 2 12 0 20 -4 17 -5 -3 -9 -17 -10 -32 -1 -15 -5 -38 -10 -52 -6 -19
-8 -12 -5 25 3 28 8 59 12 70 5 15 4 17 -5 9 -6 -6 -18 -39 -25 -75 -8 -35
-15 -59 -15 -54 -1 6 -5 4 -10 -3 -5 -9 -12 6 -20 45 -6 32 -16 65 -22 73 -9
13 -10 13 -6 -1 3 -9 8 -38 11 -65 l5 -49 -10 42 c-5 23 -17 47 -26 55 -11 8
-14 9 -10 1 4 -7 5 -24 1 -38 l-6 -25 -20 25 c-11 14 -27 25 -36 25 -14 1 -95
119 -88 127 2 2 40 -8 86 -22 104 -31 130 -31 255 5 126 35 124 35 93 3z
m-331 -200 c-2 -16 -4 -5 -4 22 0 28 2 40 4 28 2 -13 2 -35 0 -50z m65 -15
c-8 -8 -9 -4 -5 13 4 13 8 18 11 10 2 -7 -1 -18 -6 -23z m-22 -355 c0 -6 2
-17 5 -25 4 -10 -9 -13 -56 -13 -56 0 -63 -3 -83 -28 -17 -23 -21 -42 -20 -96
2 -109 46 -165 116 -145 33 10 33 10 34 74 1 58 3 65 23 68 20 3 21 0 21 -81
l0 -84 -37 -7 c-75 -12 -122 -7 -144 15 -35 35 -60 104 -60 168 -1 115 50 173
148 168 32 -1 53 -7 53 -14z m343 1 c73 -7 77 -8 77 -32 0 -18 -4 -23 -16 -18
-9 3 -40 9 -69 12 -52 6 -54 6 -60 -19 -4 -14 -5 -36 -3 -48 3 -22 8 -24 56
-24 40 1 52 -3 52 -15 0 -26 -14 -40 -30 -30 -8 6 -29 10 -47 10 -30 0 -32 -3
-38 -43 -4 -24 -5 -56 -3 -73 3 -29 3 -29 71 -29 43 0 67 -4 67 -11 0 -19 -26
-24 -117 -24 -77 0 -84 2 -78 18 9 23 27 259 23 300 -5 37 -8 36 115 26z m326
-102 c21 -88 44 -152 53 -152 11 0 15 11 32 93 8 38 16 71 18 73 2 2 14 1 27
-3 17 -4 21 -11 16 -27 -3 -11 -23 -85 -43 -163 -20 -77 -41 -142 -47 -143 -5
-1 -25 49 -42 111 -18 62 -37 117 -42 122 -10 10 -24 -31 -45 -136 -12 -61
-14 -62 -47 -54 -17 5 -19 9 -10 25 11 22 71 259 71 284 0 17 18 28 36 21 7
-2 17 -25 23 -51z m-1087 37 c26 -14 49 -69 41 -100 -3 -13 -15 -34 -26 -46
-20 -22 -20 -23 -1 -45 50 -61 81 -91 104 -101 24 -10 24 -10 -15 -18 -40 -8
-40 -8 -100 56 -46 50 -67 65 -87 65 -26 0 -28 -3 -28 -37 1 -21 7 -56 15 -78
8 -21 13 -40 12 -41 -1 -1 -14 -5 -30 -9 -26 -7 -27 -6 -27 31 0 56 -49 266
-66 285 -14 15 -10 18 43 32 70 18 137 21 165 6z m-361 -127 c38 -40 69 -119
69 -175 0 -101 -111 -169 -190 -115 -44 29 -89 112 -97 175 -11 98 49 169 137
160 36 -4 51 -13 81 -45z m1794 13 c104 -31 135 -46 135 -66 0 -18 -2 -18 -41
-3 -23 10 -44 13 -48 8 -9 -11 -87 -218 -97 -256 -7 -31 -10 -32 -42 -15 -23
13 -23 14 -4 38 18 24 102 234 102 256 0 7 -18 17 -40 23 -22 6 -38 15 -35 20
8 13 11 13 70 -5z m-2170 -135 c-3 -4 -22 -10 -43 -14 -43 -6 -76 -35 -70 -62
3 -19 16 -23 120 -44 100 -20 141 -104 82 -164 -15 -14 -31 -26 -36 -26 -5 0
-28 -9 -50 -20 -23 -11 -42 -19 -43 -17 -5 6 -25 46 -25 50 0 2 23 7 52 9 59
6 91 34 86 77 -4 33 -39 51 -100 51 -84 0 -127 28 -128 83 0 44 16 64 67 83
27 9 52 21 58 26 10 9 38 -20 30 -32z m2595 -35 c5 -3 6 -13 3 -23 -4 -17 -9
-16 -61 10 -31 15 -63 28 -70 28 -7 0 -20 -17 -28 -37 -15 -34 -15 -38 3 -51
10 -7 30 -16 46 -19 28 -6 33 -18 18 -42 -7 -11 -12 -11 -32 2 -50 32 -64 30
-83 -10 -10 -21 -22 -51 -27 -66 -7 -26 -5 -29 34 -46 23 -10 54 -21 70 -25
29 -7 32 -13 18 -34 -6 -11 -27 -6 -98 24 l-91 37 18 31 c14 25 92 235 106
283 2 8 30 0 85 -23 45 -19 85 -37 89 -39z m-1638 -626 c93 -47 144 -120 179
-257 32 -126 20 -273 -32 -374 -32 -62 -107 -132 -164 -151 -59 -20 -164 -22
-208 -3 -36 15 -107 88 -132 136 -66 129 -79 324 -29 472 28 85 128 176 219
199 42 11 123 0 167 -22z m2566 -5 c65 -32 145 -119 166 -180 43 -125 41 -293
-4 -421 -23 -66 -53 -101 -120 -137 -118 -64 -224 -53 -310 33 -80 80 -113
184 -112 351 0 68 6 113 21 160 58 180 216 266 359 194z m-1769 -19 c73 -40
104 -89 109 -170 6 -99 -21 -152 -104 -201 -18 -11 -18 -13 8 -41 30 -31 50
-84 68 -175 6 -31 23 -74 36 -94 20 -29 23 -39 12 -45 -18 -12 -34 -11 -71 5
-52 21 -82 66 -107 158 -40 147 -67 178 -161 178 -48 0 -60 -3 -69 -20 -17
-32 -2 -236 21 -281 l18 -37 -40 -6 c-22 -4 -63 -4 -90 0 -41 5 -49 10 -43 23
22 54 25 108 22 373 l-4 290 -36 34 c-30 26 -33 34 -20 38 9 2 103 4 207 3
l190 -2 54 -30z m-1478 13 c53 2 59 -6 59 -89 l0 -47 -62 19 c-34 11 -91 20
-127 20 -80 1 -114 -20 -119 -74 -4 -43 18 -61 153 -130 116 -60 162 -99 191
-161 42 -90 27 -185 -39 -254 -61 -64 -83 -69 -255 -57 -130 9 -132 10 -132
110 l0 54 58 -27 c46 -22 72 -27 135 -27 76 0 79 1 108 33 37 41 38 84 4 134
-19 28 -48 48 -120 82 -53 26 -99 46 -102 46 -3 0 -22 12 -41 26 -37 29 -82
113 -82 154 0 129 106 209 255 193 39 -4 91 -6 116 -5z m2718 -4 c2 -2 -4 -20
-14 -40 -16 -33 -16 -62 -9 -348 5 -171 9 -320 9 -331 0 -14 -8 -21 -27 -23
-23 -3 -30 3 -47 37 -11 21 -54 90 -94 153 -41 62 -97 157 -126 210 -29 54
-56 100 -62 103 -16 11 -11 -394 6 -451 8 -27 15 -50 15 -51 0 -7 -114 -14
-138 -8 l-30 6 19 45 c19 42 20 59 13 337 -6 261 -8 295 -25 323 -23 38 -15
44 62 44 46 0 51 -3 78 -40 16 -22 75 -119 131 -215 56 -96 105 -175 107 -175
3 0 2 84 -1 188 -5 136 -11 193 -22 209 -8 12 -14 24 -14 27 0 13 155 13 169
0z m-3312 -9 c11 -4 30 -111 21 -121 -3 -2 -21 3 -41 11 -37 15 -176 21 -236
9 -35 -7 -37 -19 -25 -121 l7 -53 71 0 c53 0 79 5 104 20 l32 20 0 -85 c0 -47
-2 -85 -5 -85 -2 0 -30 7 -62 15 -69 18 -125 19 -141 3 -17 -17 -17 -242 1
-255 6 -5 61 -6 122 -3 88 4 119 10 153 28 l43 22 -7 -47 c-12 -84 -16 -89
-76 -96 -56 -7 -378 -10 -378 -3 0 2 7 23 15 46 12 34 15 100 15 334 0 273 -1
293 -20 324 -15 24 -17 34 -8 37 30 11 380 10 415 0z m2587 7 c3 -5 -4 -21
-15 -38 -17 -27 -19 -48 -18 -269 0 -308 7 -376 39 -410 l24 -26 -89 3 c-90 3
-90 3 -86 28 2 14 5 131 8 260 4 213 -4 358 -22 433 l-7 27 80 0 c45 0 83 -4
86 -8z m-3212 -14 c9 -7 20 -35 24 -62 l7 -49 -44 7 c-93 15 -125 17 -138 7
-13 -8 -13 -49 -3 -303 7 -161 15 -303 18 -315 6 -22 4 -23 -73 -23 l-80 0 18
53 c16 45 18 87 19 308 0 185 -3 258 -12 267 -7 7 -44 12 -96 12 l-84 0 7 33
c15 66 14 66 148 70 67 1 156 4 198 5 48 1 81 -3 91 -10z m-832 -980 c107 -56
230 -148 743 -558 257 -206 291 -230 490 -349 292 -175 600 -301 836 -342 126
-22 372 -27 446 -9 27 6 50 6 71 -2 56 -20 133 31 121 79 -3 14 -7 11 -16 -14
-26 -67 -121 -61 -121 8 0 60 65 119 130 119 66 0 107 -57 96 -133 -18 -121
-94 -158 -361 -172 -408 -22 -882 141 -1382 476 -139 93 -484 361 -669 520
-199 171 -372 295 -444 319 -106 35 -180 13 -208 -63 -12 -30 -12 -43 3 -93
25 -86 74 -121 220 -161 27 -7 24 -8 -24 -11 -95 -6 -201 41 -256 114 -55 72
-53 199 5 259 40 41 76 53 167 54 65 1 78 -3 153 -41z m6240 -7 c53 -28 74
-72 75 -157 0 -83 -14 -109 -83 -158 -33 -24 -55 -30 -104 -33 l-63 -4 43 20
c134 64 182 163 111 233 -28 29 -34 30 -88 25 -102 -9 -245 -91 -504 -288
-244 -186 -707 -528 -792 -586 -185 -125 -446 -257 -627 -318 -174 -58 -338
-86 -481 -83 l-122 3 -23 43 c-13 24 -22 46 -19 49 3 3 19 -2 36 -10 21 -11
31 -12 34 -3 3 8 9 7 21 -3 11 -10 20 -11 24 -4 4 5 27 11 51 11 209 8 532 99
796 226 134 64 416 252 625 416 85 67 217 170 293 228 76 59 171 132 211 163
120 92 267 175 378 213 117 41 158 44 208 17z m-5034 -29 c-25 -83 -46 -173
-42 -180 2 -4 1 -14 -4 -21 -6 -11 -13 -10 -34 5 -31 23 -33 40 -6 47 28 7 25
22 -8 46 -31 22 -52 16 -49 -13 3 -28 -14 -28 -48 -1 -27 22 -28 25 -10 31 11
4 53 33 94 65 61 49 76 57 93 48 11 -6 17 -17 14 -27z m3757 4 c14 -20 14 -26
2 -36 -10 -9 -16 -7 -23 6 -9 17 -11 17 -37 0 -24 -16 -25 -19 -12 -39 18 -27
39 -34 35 -12 -5 30 17 27 35 -5 20 -33 14 -59 -8 -40 -21 17 -25 -3 -6 -29
16 -21 20 -22 40 -10 15 10 20 20 16 35 -8 34 19 36 38 4 l17 -28 -63 -41
c-35 -22 -66 -41 -70 -41 -4 0 -6 10 -5 23 2 27 -67 137 -87 137 -33 0 -21 22
32 59 32 22 63 40 69 40 7 1 19 -10 27 -23z m-3610 -78 c12 -13 25 -24 30 -24
4 -1 11 -2 17 -3 5 0 2 -17 -7 -36 -22 -45 -49 -44 -45 2 2 23 -2 34 -16 42
-37 20 -92 -45 -92 -109 0 -37 21 -48 56 -30 33 18 57 -2 32 -27 -43 -42 -128
0 -128 63 0 106 93 181 153 122z m3412 -37 c-6 -20 47 -151 62 -151 22 1 34
18 28 42 -10 40 21 45 34 6 6 -17 11 -34 11 -38 0 -4 -27 -21 -59 -39 -57 -30
-78 -30 -66 1 7 18 -51 143 -67 143 -24 0 -18 24 9 39 39 21 56 20 48 -3z
m-3230 -63 c25 -19 27 -26 23 -75 -4 -44 -11 -60 -38 -88 -19 -19 -43 -35 -53
-35 -14 0 -18 -5 -14 -20 4 -16 0 -20 -19 -20 -17 0 -24 6 -24 20 0 11 -9 37
-21 59 -18 34 -19 45 -9 82 24 87 96 123 155 77z m3182 -116 c40 -41 40 -45 8
-60 -39 -18 -48 -15 -41 12 8 33 -7 40 -44 21 -31 -16 -41 -45 -15 -45 22 0
19 -27 -4 -40 -43 -22 -46 -16 -49 104 -2 101 0 116 15 125 15 8 25 2 58 -37
22 -26 54 -62 72 -80z m-3065 62 c31 -16 31 -16 10 -33 -26 -20 -65 -117 -56
-143 4 -13 13 -18 27 -16 27 4 71 89 70 136 -1 17 0 32 2 32 1 0 19 -7 38 -15
25 -10 35 -20 31 -30 -3 -8 -10 -13 -16 -12 -5 1 -20 -25 -34 -58 -37 -93 -76
-115 -128 -74 -33 26 -34 60 -2 139 15 38 20 60 13 63 -6 2 -7 9 -3 15 9 15
11 15 48 -4z m2818 -24 c22 -12 34 -55 22 -77 -7 -12 1 -25 31 -55 33 -32 38
-41 26 -49 -24 -15 -37 -10 -59 26 -20 33 -39 43 -53 29 -8 -8 13 -65 23 -59
4 3 10 -2 14 -10 7 -20 -64 -52 -75 -33 -4 7 -3 15 3 19 13 9 -32 149 -48 149
-32 0 -17 27 25 47 53 25 65 27 91 13z m-165 -59 c3 -5 1 -12 -4 -16 -6 -3 -2
-28 10 -62 30 -89 25 -124 -23 -149 -49 -25 -78 -3 -107 81 -14 39 -32 75 -40
82 -14 10 -11 14 19 26 40 18 53 13 45 -14 -7 -20 20 -114 38 -136 14 -19 35
-16 47 6 7 14 5 37 -11 85 -11 37 -24 64 -28 61 -5 -3 -12 2 -15 10 -8 23 56
47 69 26z m-2417 -10 c15 -8 17 -24 15 -118 -2 -59 -3 -111 -3 -115 0 -3 -13
-1 -30 5 -32 12 -39 31 -15 41 25 9 17 33 -16 45 -24 8 -36 8 -46 -1 -11 -9
-11 -13 -1 -19 26 -16 -6 -30 -40 -18 -34 12 -41 26 -18 35 8 3 41 39 73 80
32 41 59 74 61 74 2 0 11 -4 20 -9z m2232 -63 c0 -7 3 -23 6 -35 8 -29 -19
-32 -32 -3 -5 12 -14 17 -21 12 -16 -10 24 -152 44 -152 28 0 11 -27 -24 -38
-29 -9 -39 -9 -45 1 -4 7 -3 14 2 15 14 5 13 16 -11 94 -11 39 -24 66 -30 62
-5 -3 -9 -15 -7 -27 2 -14 -3 -23 -14 -25 -17 -3 -19 2 -22 54 -1 11 16 22 54
34 67 22 100 24 100 8z m-2021 -4 l31 -6 1 -87 0 -86 37 73 c36 71 38 73 67
68 40 -9 53 -23 33 -38 -20 -17 -55 -151 -40 -156 6 -2 8 -10 5 -18 -3 -9 -13
-12 -32 -8 -38 9 -49 23 -29 38 14 10 23 36 44 121 3 11 -14 -15 -37 -57 -29
-55 -47 -78 -60 -78 -17 0 -19 9 -20 83 l-1 82 -14 -50 c-8 -27 -12 -60 -9
-72 6 -28 -2 -32 -42 -21 -36 9 -42 22 -17 36 19 11 59 145 44 150 -12 4 -13
32 -1 32 5 0 23 -3 40 -6z m1826 -129 c28 -46 53 -85 58 -85 17 0 5 -28 -15
-34 -36 -9 -48 -7 -48 9 0 8 5 15 12 15 8 0 7 6 -4 16 -22 22 -78 10 -78 -17
0 -10 5 -19 10 -19 22 0 8 -28 -16 -34 -32 -8 -52 7 -37 26 6 7 14 53 17 103
7 84 15 104 41 105 6 0 33 -38 60 -85z m-1567 59 c25 -7 28 -22 8 -38 -19 -16
-46 -142 -32 -156 19 -19 -8 -28 -49 -16 l-39 11 21 20 c21 21 57 155 42 155
-5 0 -9 7 -9 15 0 16 20 19 58 9z m1412 -18 c0 -8 -4 -16 -9 -18 -5 -2 -1 -44
8 -95 10 -51 14 -93 10 -93 -4 0 -14 -3 -23 -6 -11 -4 -29 16 -66 71 -27 43
-50 73 -50 68 0 -39 25 -123 36 -123 27 0 13 -29 -17 -35 -35 -8 -64 10 -41
24 17 11 -3 141 -25 158 -20 16 -10 30 27 35 27 4 33 -1 71 -59 23 -35 44 -62
46 -60 8 9 -10 89 -23 102 -19 18 -17 33 4 38 34 9 52 7 52 -7z m-1312 -8 c5
-7 19 -51 29 -98 l20 -85 10 70 c6 39 7 71 2 73 -14 5 -11 32 4 32 44 -1 78
-31 46 -42 -14 -5 -39 -147 -28 -154 5 -3 9 -12 9 -19 0 -11 -8 -13 -32 -8
-18 3 -36 10 -39 15 -3 5 -14 43 -24 86 l-19 77 -9 -58 c-6 -41 -5 -63 3 -72
17 -21 5 -32 -30 -27 -36 5 -49 21 -28 36 9 7 20 42 27 86 15 94 17 100 34
100 8 0 19 -6 25 -12z m250 -34 c53 -7 62 -17 46 -58 -9 -23 -34 -20 -34 4 0
11 -3 20 -7 20 -5 0 -18 3 -30 6 -21 6 -23 3 -23 -30 0 -20 5 -36 10 -36 6 0
10 5 10 10 0 6 7 10 16 10 11 0 14 -5 10 -16 -3 -9 -6 -27 -6 -40 0 -15 -6
-24 -15 -24 -8 0 -15 7 -15 15 0 8 -4 15 -10 15 -5 0 -10 -13 -10 -29 0 -21 6
-30 23 -35 34 -9 37 -8 37 14 0 11 7 20 15 20 11 0 15 -11 15 -36 l0 -36 -72
7 c-40 4 -76 9 -80 12 -13 7 -9 33 4 31 15 -3 30 101 22 150 -6 36 -3 37 94
26z m772 -6 c0 -7 3 -23 6 -35 5 -19 2 -23 -15 -23 -15 0 -21 6 -21 21 0 16
-5 20 -27 17 -23 -2 -28 -8 -28 -32 0 -16 6 -31 13 -34 7 -2 11 2 10 8 -2 7 2
14 9 17 16 6 29 -65 15 -79 -8 -8 -13 -7 -18 5 -10 27 -24 20 -24 -13 0 -27 3
-30 30 -30 23 0 30 4 30 20 0 13 7 20 20 20 16 0 20 -7 20 -35 0 -30 -3 -35
-22 -35 -13 0 -45 -3 -73 -6 l-50 -6 -1 91 c-1 78 -4 94 -20 106 -21 15 -13
21 41 28 67 9 105 7 105 -5z m-557 -26 c23 -20 22 -57 -3 -82 -10 -10 -15 -22
-10 -25 4 -3 11 -19 15 -35 4 -17 11 -30 16 -30 5 0 9 -7 9 -15 0 -9 -9 -15
-25 -15 -19 0 -26 7 -31 28 -12 55 -16 62 -30 62 -22 0 -28 -28 -14 -56 8 -13
11 -27 8 -30 -11 -11 -78 8 -78 22 0 8 4 14 9 14 14 0 25 154 12 158 -6 2 -11
10 -11 18 0 19 108 8 133 -14z m327 4 c0 -8 -4 -16 -9 -18 -6 -2 -7 -35 -4
-80 6 -74 7 -78 29 -78 19 0 24 5 24 24 0 13 7 27 16 30 12 5 15 -2 12 -37
l-3 -42 -67 -3 c-56 -2 -68 0 -68 13 0 8 5 15 11 15 13 0 1 153 -12 158 -5 2
-9 10 -9 18 0 10 12 14 40 14 28 0 40 -4 40 -14z m-135 -87 c16 -50 33 -93 37
-95 4 -3 8 -12 8 -20 0 -9 -11 -14 -34 -14 -34 0 -61 20 -38 28 7 2 12 12 12
23 0 16 -7 19 -40 19 -33 0 -40 -3 -40 -19 0 -11 5 -21 12 -23 21 -7 -3 -28
-33 -28 -16 0 -29 2 -29 4 0 4 54 173 65 204 2 6 15 12 28 12 21 0 27 -10 52
-91z m240 -424 l-5 40 15 -45 c17 -53 18 -61 5 -40 -8 12 -10 12 -10 -5 -1
-26 -39 63 -39 90 0 11 9 -2 19 -30 l19 -50 -4 40z m-88 23 c-3 -8 -6 -5 -6 6
-1 11 2 17 5 13 3 -3 4 -12 1 -19z m20 0 c-3 -8 -6 -5 -6 6 -1 11 2 17 5 13 3
-3 4 -12 1 -19z m100 -30 c-3 -8 -6 -5 -6 6 -1 11 2 17 5 13 3 -3 4 -12 1 -19z
m-505 -12 c26 -12 45 -19 42 -14 -3 4 0 8 6 8 6 0 15 -10 20 -22 l9 -23 0 23
c1 20 6 22 64 22 34 0 83 7 108 14 l46 14 6 -48 c7 -60 23 -91 77 -152 59 -68
33 -59 -38 12 -33 33 -63 60 -66 60 -3 0 -6 -8 -7 -17 0 -14 -3 -12 -10 5 -5
13 -13 21 -18 18 -13 -8 -24 48 -16 75 5 15 4 19 -4 15 -6 -4 -11 -38 -11 -79
-1 -60 -3 -69 -12 -52 -7 11 -11 34 -11 50 2 29 2 29 -6 5 -5 -14 -7 -36 -6
-50 1 -14 0 -18 -2 -10 -11 34 -21 30 -18 -6 1 -22 1 -30 -2 -19 -9 45 -13 51
-23 35 -8 -12 -10 -10 -10 9 0 24 0 24 -15 5 -10 -14 -14 -15 -15 -4 0 21 -18
-1 -23 -30 -3 -16 -5 -9 -7 20 -2 42 -3 43 -10 15 l-8 -30 -2 35 c-1 29 -3 32
-10 15 -7 -16 -9 -16 -9 -3 -1 12 -9 15 -36 13 -38 -4 -36 -6 -50 78 -7 44 0
46 67 13z m435 2 c-3 -8 -6 -5 -6 6 -1 11 2 17 5 13 3 -3 4 -12 1 -19z m111
-39 c-3 -8 -7 -3 -11 10 -4 17 -3 21 5 13 5 -5 8 -16 6 -23z m-190 -39 c0 -9
-3 -7 -8 5 -5 11 -8 29 -8 40 0 16 2 15 8 -5 4 -14 8 -32 8 -40z m-408 -60 c2
17 4 19 7 8 2 -9 -3 -29 -11 -45 -8 -15 -15 -22 -16 -14 0 11 -3 11 -15 1 -11
-9 -11 -4 3 29 15 36 18 38 24 18 6 -21 6 -21 8 3z m626 -52 c13 -27 22 -48
19 -48 -2 0 -11 14 -20 30 -9 17 -21 30 -28 30 -7 0 -12 14 -13 31 -1 35 3 30
42 -43z m-66 21 c12 -23 20 -43 18 -45 -3 -2 -14 17 -26 41 -27 56 -20 60 8 4z
m80 1 c11 -22 18 -40 15 -40 -2 0 -14 18 -25 40 -11 22 -18 40 -15 40 2 0 14
-18 25 -40z m46 -34 c14 -26 20 -45 14 -41 -11 7 -60 99 -60 112 0 11 16 -14
46 -71z m-158 39 c-3 -3 -9 2 -12 12 -6 14 -5 15 5 6 7 -7 10 -15 7 -18z m207
-28 c27 -48 34 -72 10 -41 -14 19 -14 19 -15 -1 0 -16 -3 -15 -18 10 -21 34
-33 65 -27 65 2 0 12 -14 20 -31 9 -17 19 -29 21 -26 3 3 -2 19 -11 36 -23 46
-10 37 20 -12z"/>
<path d="M2815 4643 c-32 -8 -45 -24 -40 -49 17 -81 12 -75 53 -68 50 9 80 29
88 60 12 48 -33 73 -101 57z"/>
<path d="M2410 4523 c-30 -38 -23 -124 14 -188 40 -68 90 -84 137 -46 20 16
24 28 24 78 -1 129 -115 231 -175 156z"/>
<path d="M2975 3656 c-41 -18 -91 -77 -105 -123 -6 -21 -14 -81 -17 -134 -11
-195 63 -319 191 -319 46 0 53 3 97 49 62 64 80 122 81 248 1 156 -30 229
-112 271 -50 25 -91 27 -135 8z"/>
<path d="M5565 3656 c-46 -20 -93 -80 -111 -143 -12 -42 -15 -83 -12 -163 4
-92 8 -116 32 -164 36 -73 82 -106 149 -106 44 0 54 4 87 38 83 83 112 304 56
427 -39 87 -80 125 -130 125 -23 -1 -55 -7 -71 -14z"/>
<path d="M3661 3646 c-8 -9 -9 -41 -5 -101 l7 -87 118 4 c136 3 148 10 156 80
8 66 -22 96 -107 108 -94 14 -156 12 -169 -4z"/>
<path d="M4040 1446 c0 -2 8 -10 18 -17 15 -13 16 -12 3 4 -13 16 -21 21 -21
13z"/>
<path d="M1545 2675 c-16 -13 -27 -26 -25 -27 3 -2 13 -9 22 -17 15 -11 18 -8
27 25 6 21 9 39 8 40 -1 1 -15 -8 -32 -21z"/>
<path d="M1857 2500 c-45 -53 -44 -130 2 -130 25 0 71 69 71 106 0 58 -35 70
-73 24z"/>
<path d="M5010 2473 c0 -37 13 -55 33 -47 22 8 22 11 -8 46 l-25 30 0 -29z"/>
<path d="M4810 2426 c0 -1 5 -17 11 -35 14 -39 33 -35 37 7 3 28 0 32 -22 32
-14 0 -26 -2 -26 -4z"/>
<path d="M2258 2323 c-22 -24 -23 -39 -2 -47 23 -9 26 -3 22 34 -3 32 -3 32
-20 13z"/>
<path d="M4268 2191 c-4 -41 4 -49 30 -32 11 6 10 14 -6 40 l-20 33 -4 -41z"/>
<path d="M3260 2115 c0 -40 22 -48 40 -14 15 27 6 49 -20 49 -16 0 -20 -6 -20
-35z"/>
<path d="M3456 2098 c-10 -38 -7 -48 14 -48 11 0 20 6 20 13 0 23 -12 57 -20
57 -4 0 -10 -10 -14 -22z"/>
</g>
</svg>
