<?xml version="1.0" encoding="UTF-8"?>
<svg id="Layer_2" data-name="Layer 2" xmlns="http://www.w3.org/2000/svg" viewBox="0 0 277.71 190.09">
  <defs>
    <style>
      .cls-1 {
        stroke-width: 5px;
      }

      .cls-1, .cls-2 {
        stroke-linecap: round;
        stroke-linejoin: round;
      }

      .cls-1, .cls-2, .cls-3 {
        fill: none;
        stroke: #231f20;
      }

      .cls-4 {
        fill: #fff;
      }

      .cls-4, .cls-5 {
        stroke-width: 0px;
      }

      .cls-5 {
        fill: #231f20;
      }

      .cls-2 {
        stroke-width: 4px;
      }

      .cls-3 {
        stroke-miterlimit: 10;
        stroke-width: 6px;
      }
    </style>
  </defs>
  <g id="Layer_1-2" data-name="Layer 1">
    <g>
      <path class="cls-3" d="m110.7,111.74c17.13-10.59,38.92-19.35,64.62-19.35,55.25,0,99.39,51.04,99.39,94.7h-90.26"/>
      <path class="cls-3" d="m110.7,111.74c-3.49-.56-7.06-.95-10.68-1.16-2.08-.12-4.18-.19-6.29-.19-50.11,0-90.72,34.34-90.72,76.7h181.45"/>
      <path class="cls-3" d="m110.7,111.74c32.64,5.22,59.09,25.22,69.25,51.45,2.91,7.52,4.49,15.55,4.49,23.89"/>
    </g>
    <g>
      <path class="cls-4" d="m43.58,71.67c-15.48,0-28.06-8.73-28.06-19.46s12.59-19.46,28.06-19.46c3.34,0,6.57.39,9.65,1.17.26-.58.55-1.16.87-1.71-4.38-3.21-6.77-7.25-6.77-11.56,0-10.18,13.24-18.15,30.15-18.15s30.15,7.97,30.15,18.15c0,.31-.01.62-.04.93,17.87.04,32.39,10.09,32.39,22.43s-14.58,22.44-32.5,22.44c-8.71,0-17.02-2.39-23.09-6.6-3.24,1.59-6.85,2.43-10.53,2.43-1.9,0-3.79-.23-5.65-.68-4.86,6.17-14.27,10.07-24.64,10.07Z"/>
      <path class="cls-5" d="m77.49,5c15.27,0,27.65,7.01,27.65,15.65,0,1.22-.25,2.4-.72,3.54,1.01-.07,2.03-.1,3.07-.1,16.57,0,30,8.93,30,19.93s-13.43,19.93-30,19.93c-9.17,0-17.38-2.74-22.88-7.05-3.1,1.81-6.78,2.88-10.74,2.88-2.35,0-4.59-.39-6.68-1.06-3.85,6.14-12.97,10.46-23.62,10.46-14.12,0-25.57-7.59-25.57-16.96s11.45-16.96,25.57-16.96c4.01,0,7.8.61,11.18,1.7.61-1.98,1.56-3.82,2.82-5.46-4.79-2.81-7.74-6.64-7.74-10.85,0-8.64,12.38-15.65,27.65-15.65m0-5c-18.31,0-32.65,9.07-32.65,20.65,0,3.56,1.32,6.94,3.81,9.9-1.66-.19-3.35-.29-5.07-.29-17.14,0-30.57,9.64-30.57,21.96s13.43,21.96,30.57,21.96c10.43,0,20.02-3.76,25.57-9.82,1.56.28,3.14.43,4.72.43,3.57,0,7.08-.71,10.31-2.08,6.35,4,14.66,6.25,23.31,6.25,19.63,0,35-10.95,35-24.93s-14.05-23.96-32.43-24.87c-1.18-10.85-15.06-19.15-32.57-19.15h0Z"/>
    </g>
    <g>
      <path class="cls-4" d="m236.88,62.28c-8.1,0-15.38-4.27-18.85-10.73-4.75,3.5-11.38,5.52-18.45,5.52-14.27,0-25.46-7.86-25.46-17.89,0-6.76,5.2-12.75,13.47-15.81-.62-1.7-.95-3.5-.95-5.32,0-8.57,6.97-15.54,15.54-15.54,2.04,0,4.03.4,5.92,1.18,3.27-.79,6.72-1.18,10.25-1.18,16.03,0,28.59,7.97,28.59,18.15,0,1.75-.37,3.44-1.1,5.08,7.23,3.13,12.06,9.89,12.06,17.36,0,10.58-9.43,19.2-21.02,19.2Z"/>
      <path class="cls-5" d="m218.36,5c14.41,0,26.09,7.01,26.09,15.65,0,2.29-.83,4.47-2.31,6.43,7.67,2.04,13.26,8.43,13.26,16,0,9.22-8.29,16.7-18.52,16.7-8.58,0-15.78-5.27-17.88-12.41-4.07,4.32-11.24,7.19-19.42,7.19-12.68,0-22.96-6.89-22.96-15.39,0-6.49,5.99-12.04,14.47-14.3-1.23-1.99-1.95-4.32-1.95-6.83,0-7.2,5.84-13.04,13.04-13.04,2.04,0,3.97.48,5.69,1.32,3.21-.85,6.75-1.32,10.48-1.32m0-5c-3.46,0-6.83.36-10.06,1.07-1.96-.71-4.01-1.07-6.11-1.07-9.95,0-18.04,8.09-18.04,18.04,0,1.3.14,2.6.42,3.86-8.01,3.65-12.94,10.06-12.94,17.27,0,11.43,12.28,20.39,27.96,20.39,6.55,0,12.78-1.63,17.69-4.53,4.27,5.95,11.58,9.75,19.61,9.75,12.97,0,23.52-9.73,23.52-21.7,0-7.72-4.51-14.77-11.47-18.62.34-1.25.51-2.53.51-3.81,0-11.58-13.65-20.65-31.09-20.65h0Z"/>
    </g>
    <line class="cls-1" x1="176.62" y1="72.25" x2="176.62" y2="53.47"/>
    <line class="cls-1" x1="45.53" y1="81.04" x2="45.53" y2="96.04"/>
    <line class="cls-1" x1="62.49" y1="75.57" x2="62.49" y2="82.48"/>
    <line class="cls-1" x1="81.4" y1="86.39" x2="81.4" y2="98.39"/>
    <line class="cls-1" x1="94.58" y1="72.25" x2="94.58" y2="77.65"/>
    <line class="cls-2" x1="112.58" y1="76.09" x2="112.58" y2="96.04"/>
    <line class="cls-2" x1="130.45" y1="69.17" x2="130.45" y2="79.87"/>
    <line class="cls-2" x1="194.01" y1="66.57" x2="194.01" y2="77.65"/>
    <line class="cls-2" x1="214.19" y1="66.57" x2="214.19" y2="86.39"/>
    <line class="cls-1" x1="228.45" y1="72.11" x2="228.45" y2="74.95"/>
    <line class="cls-1" x1="245.84" y1="69.17" x2="245.84" y2="98.39"/>
  </g>
</svg>