<?xml version="1.0" standalone="no"?>
<!DOCTYPE svg PUBLIC "-//W3C//DTD SVG 1.1//EN" "http://www.w3.org/Graphics/SVG/1.1/DTD/svg11.dtd" >
<svg>
<metadata>
Created by FontForge 20090914 at Fri Feb 24 11:07:40 2012
 By root
Copyright 2007 Adobe Systems Incorporated. All rights reserved.
</metadata>
<defs>
<font id="PremierLeague" horiz-adv-x="582" >
  <font-face 
    font-family="Premier League"
    font-weight="400"
    font-stretch="normal"
    units-per-em="1000"
    panose-1="2 0 5 0 0 0 0 0 0 0"
    ascent="887"
    descent="-113"
    x-height="730"
    cap-height="730"
    bbox="-12 -113 914 805"
    underline-thickness="50"
    underline-position="-75"
    unicode-range="U+0020-U+007A"
  />
<missing-glyph horiz-adv-x="500" 
d="M438 0v800h-375v-800h375zM125 738h250v-675h-250v675z" />
    <glyph glyph-name=".notdef" horiz-adv-x="500" 
d="M438 0v800h-375v-800h375zM125 738h250v-675h-250v675z" />
    <glyph glyph-name=".null" horiz-adv-x="0" 
 />
    <glyph glyph-name="nonmarkingreturn" horiz-adv-x="250" 
 />
    <glyph glyph-name="space" unicode=" " horiz-adv-x="250" 
 />
    <glyph glyph-name="space" unicode="&#xa0;" horiz-adv-x="250" 
 />
    <glyph glyph-name="N" unicode="N" horiz-adv-x="716" 
d="M204 262q0 91 -2 159.5t-4 116.5l39 -89.5t33 -67.5l203 -381h183v730h-140v-226q0 -104 2 -180.5t6 -124.5q-20 43 -42 85.5l-44 85.5l-192 360h-220q17 -9 28 -44q5 -14 7.5 -30t2.5 -30v-522q0 -15 -2.5 -30.5t-7.5 -29.5q-5 -16 -12.5 -27.5t-15.5 -16.5h178v262z
" />
    <glyph glyph-name="D" unicode="D" horiz-adv-x="677" 
d="M26 730q17 -9 28 -45q5 -14 7.5 -30t2.5 -30v-523q0 -15 -2.5 -30t-7.5 -29q-5 -16 -12.5 -27t-15.5 -16h220q182 0 289 95q112 99 112 282q0 353 -399 353h-222zM204 612h57q111 0 173 -64t62 -181q0 -126 -67 -188q-61 -59 -169 -59h-56v492z" />
    <glyph glyph-name="I" unicode="I" horiz-adv-x="265" 
d="M205 730h-179q18 -9 29 -44q5 -14 7.5 -30t2.5 -30v-626h140v730z" />
    <glyph glyph-name="C" unicode="C" horiz-adv-x="632" 
d="M403 -9q108 0 153 16l56 133q-74 -23 -188 -23q-242 0 -242 249q0 109 63 177q65 68 169 68q94 0 195 -43l-1 137q-49 16 -97 23.5t-95 7.5q-181 0 -286 -108q-100 -103 -100 -273q0 -149 89 -250q103 -114 284 -114z" />
    <glyph glyph-name="S" unicode="S" horiz-adv-x="490" 
d="M184 -7q131 0 203 63q68 60 68 165q0 87 -49 139q-16 17 -42.5 33t-62.5 31q-34 14 -56 24.5t-31 17.5q-38 27 -38 71q0 40 30 63q31 22 87 22q33 -1 66 -7t65 -17v123q-36 8 -67 11.5t-55 4.5q-122 5 -194 -54q-72 -58 -72 -156q0 -102 59 -153q16 -13 45 -29t74 -33
q25 -10 42.5 -20t28.5 -18q29 -26 29 -68q0 -92 -125 -92q-107 0 -159 21l54 -129q21 -13 100 -13z" />
    <glyph glyph-name="X" unicode="X" horiz-adv-x="655" 
d="M20 0h160l152 270l151 -270h172l-232 375l208 355h-155l-142 -252l-144 252h-180q18 -10 39 -36t45 -67l150 -253z" />
    <glyph glyph-name="E" unicode="E" horiz-adv-x="472" 
d="M409 0l50 119h-254v199h209v117h-209v176h237v119h-416q18 -9 29 -44q5 -14 7.5 -29.5t2.5 -30.5v-521q0 -31 -13 -65q-5 -14 -12 -24.5t-13 -15.5h382z" />
    <glyph glyph-name="one" unicode="1" horiz-adv-x="299" 
d="M219 735l-179 -75q39 -21 39 -104v-451q0 -32 -13 -64q-5 -14 -12 -25t-13 -16h178v735z" />
    <glyph glyph-name="T" unicode="T" horiz-adv-x="558" 
d="M340 611h160l48 119h-528v-119h183v-611h137v611z" />
    <glyph glyph-name="R" unicode="R" horiz-adv-x="568" 
d="M422 280q-20 36 -37 44q57 18 95 71q39 54 39 131q0 204 -263 204h-230q18 -9 29 -44q5 -14 7.5 -29.5t2.5 -29.5v-521q0 -16 -3.5 -32.5t-8.5 -31.5q-11 -31 -26 -42h178v299h19q30 0 47 -36l124 -263h173zM205 617h37q131 0 131 -105q0 -52 -37 -81q-36 -30 -98 -30
h-33v216z" />
    <glyph glyph-name="L" unicode="L" horiz-adv-x="443" 
d="M393 0l50 119h-243v611h-179q17 -10 28 -44q5 -14 7.5 -29.5t2.5 -30.5v-521q0 -16 -3.5 -32.5t-8.5 -32.5q-5 -14 -12 -24.5t-13 -15.5h371z" />
    <glyph glyph-name="U" unicode="U" horiz-adv-x="684" 
d="M57 255q0 -263 276 -263q150 0 226 76q70 69 70 189v473h-140v-467q0 -155 -146 -155q-82 0 -116 42q-30 39 -30 114v466h-176q13 -10 24 -40q12 -32 12 -66v-369z" />
    <glyph glyph-name="two" unicode="2" horiz-adv-x="517" 
d="M435 0l52 120h-279v3l64 56q199 174 199 336q0 103 -65 165q-68 65 -195 65q-54 0 -98 -7t-78 -20v-128q69 30 153 30q138 0 138 -119q0 -59 -57 -134q-44 -59 -169 -178l-90 -86v-103h425z" />
    <glyph glyph-name="O" unicode="O" horiz-adv-x="754" 
d="M175 363q0 120 63 190q58 64 139 64q79 0 138 -64q64 -70 64 -189q0 -117 -64 -189q-58 -64 -138 -64t-137 64q-32 35 -48.5 82t-16.5 106zM376 740q-141 0 -238 -94q-108 -105 -108 -281q0 -178 108 -281q99 -96 238 -96q140 0 240 95q108 105 108 281q0 175 -108 281
q-98 95 -240 95z" />
    <glyph glyph-name="M" unicode="M" horiz-adv-x="814" 
d="M26 730q18 -9 29 -44q5 -14 7.5 -29.5t2.5 -29.5v-521q0 -16 -3.5 -32.5t-8.5 -31.5q-11 -31 -26 -42h178v490h2q13 -42 37 -81l131 -215h67l131 215q14 24 24.5 44t15.5 37h1v-490h140v730h-138l-162 -277l-31 -54t-14 -29h-1q-13 27 -24 47.5l-19 34.5l-162 278h-177z
" />
    <glyph glyph-name="F" unicode="F" horiz-adv-x="467" 
d="M204 0v318h210v117h-210v176h238v119h-416q17 -10 28 -44q5 -14 7.5 -29.5t2.5 -30.5v-521q0 -16 -3.5 -32.5t-8.5 -32.5q-5 -14 -12 -24.5t-13 -15.5h177z" />
    <glyph glyph-name="B" unicode="B" 
d="M427 390q50 19 81 64q31 44 31 99q0 177 -238 177h-275q17 -9 28 -45q9 -29 9 -60v-521q0 -15 -2.5 -30.5t-6.5 -29.5q-11 -35 -28 -44h243q148 0 221 73q62 60 62 152q0 58 -31 103q-33 46 -94 60v2zM278 612q117 0 117 -81q0 -51 -32 -74q-16 -11 -43.5 -17.5
t-65.5 -6.5h-51v179h75zM203 120v202h55q72 0 108 -19q41 -23 41 -81q0 -48 -35 -75t-99 -27h-70z" />
    <glyph glyph-name="three" unicode="3" horiz-adv-x="490" 
d="M65 7q12 -7 43.5 -11t82.5 -4q123 0 194 67q65 62 65 153q0 71 -41 118q-37 40 -102 54v2q123 46 123 177q0 76 -60 127q-61 52 -173 52q-103 0 -152 -26v-122q47 26 127 26q114 0 114 -87q0 -44 -34 -69q-35 -24 -85 -24h-61v-121h64q68 0 100 -20q35 -23 35 -78
q0 -43 -37 -74t-98 -31q-57 0 -97 5.5t-63 16.5z" />
    <glyph glyph-name="H" unicode="H" horiz-adv-x="682" 
d="M482 730v-291h-277v291h-179q18 -9 29 -44q5 -14 7.5 -30t2.5 -30v-521q0 -32 -13 -64q-5 -14 -12 -25t-13 -16h178v318h277v-318h140v730h-140z" />
    <glyph glyph-name="Y" unicode="Y" horiz-adv-x="596" 
d="M229 259v-259h137v260l225 470h-146l-96 -210l-29 -65.5t-21 -54.5h-1q-10 29 -22 59.5t-26 61.5l-94 209h-168q10 -5 19.5 -17t19.5 -28q5 -7 11.5 -21.5t16.5 -34.5z" />
    <glyph glyph-name="comma" unicode="," horiz-adv-x="300" 
d="M108 -101q34 48 66 108.5t61 134.5h-134q-15 -65 -35.5 -125.5t-45.5 -117.5h88z" />
    <glyph glyph-name="V" unicode="V" horiz-adv-x="671" 
d="M262 0h157l247 730h-148l-135 -431l-24 -81t-15 -58h-2q-11 48 -21.5 82.5l-17.5 57.5l-137 430h-178q18 -11 34 -37t30 -67z" />
    <glyph glyph-name="hyphen" unicode="-" horiz-adv-x="537" 
d="M471 308l46 111h-477v-111h431z" />
    <glyph glyph-name="K" unicode="K" 
d="M203 319h20q21 0 41 -35l154 -284h164l-208 350q-10 17 -18.5 27.5t-13.5 14.5l232 338h-162l-209 -320v320h-177q18 -9 29 -44q5 -14 7.5 -30t2.5 -30v-522q0 -15 -2.5 -30.5t-7.5 -29.5q-11 -32 -29 -44h177v319z" />
    <glyph glyph-name="colon" unicode=":" horiz-adv-x="300" 
d="M85 414v-130h130v130h-130zM215 130h-130v-130h130v130z" />
    <glyph glyph-name="G" unicode="G" horiz-adv-x="692" 
d="M503 129q-18 -6 -41.5 -9.5t-51.5 -3.5q-111 0 -169 64q-59 65 -59 180q0 124 68 190q64 63 175 63q103 0 183 -47v139q-81 33 -174 33q-190 0 -298 -103q-106 -101 -106 -275q0 -85 24 -152t72 -116q99 -102 268 -102q138 0 248 59v312h-176q7 -5 13 -16t12 -25
q12 -32 12 -65v-126z" />
    <glyph glyph-name="ampersand" unicode="&#x26;" horiz-adv-x="770" 
d="M266 557q2 32 21 53t51 21q31 0 52 -21q20 -20 20 -51q0 -62 -89 -107q-56 64 -55 105zM318 102q-27 0 -50.5 8t-40.5 25q-35 35 -35 81q0 68 63 100l91 -101.5t72 -76.5q-39 -36 -99 -36h-1zM601 142q117 133 117 280h-174q27 -23 27 -59q0 -54 -57 -122l-51.5 56.5
l-72.5 82.5q150 76 150 191q0 76 -56 123q-55 47 -141 47q-103 0 -164 -61q-54 -56 -54 -131q0 -39 17 -82q17 -44 44 -69q-136 -82 -136 -201q0 -86 57 -141q67 -65 189 -65q116 0 199 63q17 -17 28.5 -31.5t19.5 -22.5h187z" />
    <glyph glyph-name="eight" unicode="8" horiz-adv-x="552" 
d="M145 377q-115 -59 -115 -185q0 -84 57 -139q65 -65 184 -65q115 0 183 60q68 62 68 162q0 136 -119 184q100 54 100 163q0 74 -52 126q-61 59 -170 59q-102 0 -169 -56t-67 -147q0 -54 24.5 -95t75.5 -67zM287 444q-99 40 -99 101q0 35 24 58q25 23 63 23q42 0 63 -23
q22 -22 22 -59q0 -33 -26 -64q-12 -14 -24 -24t-23 -12zM264 321q55 -25 82 -56.5t27 -67.5q0 -20 -7.5 -36.5t-20.5 -29.5q-27 -25 -68 -25q-99 0 -99 103q0 68 86 112z" />
    <glyph glyph-name="four" unicode="4" horiz-adv-x="601" 
d="M176 292l98 172q50 88 66 136h2q-2 -38 -3.5 -72.5t-1.5 -63.5v-172h-161zM475 730h-183l-262 -446v-112h307v-172h138v172h64l52 120h-116v438z" />
    <glyph glyph-name="five" unicode="5" horiz-adv-x="498" 
d="M447 730h-399v-366h88q105 0 151 -37q38 -30 38 -94q0 -58 -37 -90q-37 -31 -100 -31q-25 0 -50 2t-50 6q-22 4 -37 7.5t-21 7.5l55 -132q37 -16 113 -16q129 0 203 78q67 70 67 179q0 119 -82 184q-32 26 -74.5 39t-93.5 13h-34v130h263v120z" />
    <glyph glyph-name="six" unicode="6" horiz-adv-x="553" 
d="M528 253q0 108 -59 169q-54 55 -145 55q-68 0 -135 -26q16 69 64 114q57 51 147 51q23 0 38 -2t23 -4v123q-14 2 -30.5 3t-34.5 1q-160 0 -259 -107q-107 -115 -107 -322q0 -140 59 -223q67 -94 188 -94q109 0 179 76q72 76 72 186zM283 114q-104 0 -111 148q-3 67 2 72
q60 23 106 23q105 0 105 -113q0 -56 -25 -92q-27 -38 -77 -38z" />
    <glyph glyph-name="seven" unicode="7" horiz-adv-x="512" 
d="M71 730l-51 -117h315l-278 -613h158l277 625v105h-421z" />
    <glyph glyph-name="nine" unicode="9" horiz-adv-x="553" 
d="M99 5q25 -10 76 -10q158 0 250 107q45 52 71 139q27 88 27 183q0 138 -59 223q-64 94 -188 94q-109 0 -180 -77q-71 -76 -71 -185t59 -168q56 -56 145 -56q67 0 136 26q-9 -63 -51 -106q-56 -58 -156 -58q-74 0 -115 23zM168 488q0 66 31 100q28 31 72 31q103 0 111 -149
q1 -20 0.5 -38t-2.5 -33q-30 -11 -57 -17.5t-49 -6.5q-106 0 -106 113z" />
    <glyph glyph-name="zero" unicode="0" horiz-adv-x="581" 
d="M292 115q-52 0 -85 67q-34 70 -34 186q0 121 33 189q31 64 85 64q52 0 84 -64q33 -66 33 -189q0 -116 -34 -187q-32 -66 -82 -66zM551 370q0 169 -61 267q-65 104 -197 104t-200 -107q-31 -49 -47 -115.5t-16 -151.5q0 -172 63 -269q68 -106 195 -106q129 0 198 105
q65 100 65 273z" />
    <glyph glyph-name="J" unicode="J" horiz-adv-x="359" 
d="M163 211q0 -57 -20 -79q-19 -21 -63 -21q-23 0 -43.5 2.5t-36.5 7.5l50 -121q32 -8 60 -8q194 0 194 214v524h-180q18 -9 29 -44q5 -14 7.5 -30t2.5 -30v-415z" />
    <glyph glyph-name="Q" unicode="Q" horiz-adv-x="760" 
d="M591 94q41 26 79 86q54 84 54 185q0 175 -108 281q-98 95 -240 95q-141 0 -238 -95q-108 -105 -108 -281q0 -85 24.5 -153t75.5 -119q45 -46 101.5 -72.5t126.5 -31.5q44 -3 79.5 -5t64.5 -2t91 4t158 12l49 121q-37 -8 -89.5 -15t-119.5 -10zM175 363q0 120 63 190
q58 64 139 64q79 0 138 -64q64 -70 64 -189q0 -117 -64 -189q-58 -64 -138 -64t-137 64q-32 35 -48.5 82t-16.5 106z" />
    <glyph glyph-name="W" unicode="W" horiz-adv-x="919" 
d="M764 730l-95 -401q-6 -27 -12.5 -61.5t-11.5 -76.5h-1q-10 41 -19 69.5l-14 45.5l-103 306h-85l-107 -305q-9 -27 -16.5 -56.5t-12.5 -59.5h-2q-4 37 -10 71.5t-14 66.5l-97 401h-176q35 -25 55 -104l154 -626h136l109 296q8 22 13.5 45t9.5 48q4 -21 9 -44.5t13 -47.5
l90 -297h156l181 730h-150z" />
    <glyph glyph-name="period" unicode="." horiz-adv-x="300" 
d="M215 130h-130v-130h130v130z" />
    <glyph glyph-name="slash" unicode="/" horiz-adv-x="360" 
d="M119 -26l231 782h-109l-231 -782h109z" />
    <glyph glyph-name="a" unicode="a" horiz-adv-x="691" 
d="M312 444q11 33 19 63t13 58h1q5 -29 13 -59.5t18 -59.5l63 -187h-188zM686 0q-14 10 -28 35t-28 67l-213 628h-143l-213 -628q-28 -85 -56 -102h166l47 148h255l48 -148h165z" />
    <glyph glyph-name="b" unicode="b" 
d="M427 390q50 19 81 64q31 44 31 99q0 177 -238 177h-275q17 -9 28 -45q9 -29 9 -60v-521q0 -15 -2.5 -30.5t-6.5 -29.5q-11 -35 -28 -44h243q148 0 221 73q62 60 62 152q0 58 -31 103q-33 46 -94 60v2zM278 612q117 0 117 -81q0 -51 -32 -74q-16 -11 -43.5 -17.5
t-65.5 -6.5h-51v179h75zM203 120v202h55q72 0 108 -19q41 -23 41 -81q0 -48 -35 -75t-99 -27h-70z" />
    <glyph glyph-name="c" unicode="c" horiz-adv-x="632" 
d="M403 -9q108 0 153 16l56 133q-74 -23 -188 -23q-242 0 -242 249q0 109 63 177q65 68 169 68q94 0 195 -43l-1 137q-49 16 -97 23.5t-95 7.5q-181 0 -286 -108q-100 -103 -100 -273q0 -149 89 -250q103 -114 284 -114z" />
    <glyph glyph-name="d" unicode="d" horiz-adv-x="677" 
d="M26 730q17 -9 28 -45q5 -14 7.5 -30t2.5 -30v-523q0 -15 -2.5 -30t-7.5 -29q-5 -16 -12.5 -27t-15.5 -16h220q182 0 289 95q112 99 112 282q0 353 -399 353h-222zM204 612h57q111 0 173 -64t62 -181q0 -126 -67 -188q-61 -59 -169 -59h-56v492z" />
    <glyph glyph-name="e" unicode="e" horiz-adv-x="472" 
d="M409 0l50 119h-254v199h209v117h-209v176h237v119h-416q18 -9 29 -44q5 -14 7.5 -29.5t2.5 -30.5v-521q0 -31 -13 -65q-5 -14 -12 -24.5t-13 -15.5h382z" />
    <glyph glyph-name="f" unicode="f" horiz-adv-x="467" 
d="M204 0v318h210v117h-210v176h238v119h-416q17 -10 28 -44q5 -14 7.5 -29.5t2.5 -30.5v-521q0 -16 -3.5 -32.5t-8.5 -32.5q-5 -14 -12 -24.5t-13 -15.5h177z" />
    <glyph glyph-name="g" unicode="g" horiz-adv-x="692" 
d="M503 129q-18 -6 -41.5 -9.5t-51.5 -3.5q-111 0 -169 64q-59 65 -59 180q0 124 68 190q64 63 175 63q103 0 183 -47v139q-81 33 -174 33q-190 0 -298 -103q-106 -101 -106 -275q0 -85 24 -152t72 -116q99 -102 268 -102q138 0 248 59v312h-176q7 -5 13 -16t12 -25
q12 -32 12 -65v-126z" />
    <glyph glyph-name="h" unicode="h" horiz-adv-x="682" 
d="M482 730v-291h-277v291h-179q18 -9 29 -44q5 -14 7.5 -30t2.5 -30v-521q0 -32 -13 -64q-5 -14 -12 -25t-13 -16h178v318h277v-318h140v730h-140z" />
    <glyph glyph-name="i" unicode="i" horiz-adv-x="265" 
d="M205 730h-179q18 -9 29 -44q5 -14 7.5 -30t2.5 -30v-626h140v730z" />
    <glyph glyph-name="j" unicode="j" horiz-adv-x="359" 
d="M163 211q0 -57 -20 -79q-19 -21 -63 -21q-23 0 -43.5 2.5t-36.5 7.5l50 -121q32 -8 60 -8q194 0 194 214v524h-180q18 -9 29 -44q5 -14 7.5 -30t2.5 -30v-415z" />
    <glyph glyph-name="k" unicode="k" 
d="M203 319h20q21 0 41 -35l154 -284h164l-208 350q-10 17 -18.5 27.5t-13.5 14.5l232 338h-162l-209 -320v320h-177q18 -9 29 -44q5 -14 7.5 -30t2.5 -30v-522q0 -15 -2.5 -30.5t-7.5 -29.5q-11 -32 -29 -44h177v319z" />
    <glyph glyph-name="l" unicode="l" horiz-adv-x="443" 
d="M393 0l50 119h-243v611h-179q17 -10 28 -44q5 -14 7.5 -29.5t2.5 -30.5v-521q0 -16 -3.5 -32.5t-8.5 -32.5q-5 -14 -12 -24.5t-13 -15.5h371z" />
    <glyph glyph-name="m" unicode="m" horiz-adv-x="814" 
d="M26 730q18 -9 29 -44q5 -14 7.5 -29.5t2.5 -29.5v-521q0 -16 -3.5 -32.5t-8.5 -31.5q-11 -31 -26 -42h178v490h2q13 -42 37 -81l131 -215h67l131 215q14 24 24.5 44t15.5 37h1v-490h140v730h-138l-162 -277l-31 -54t-14 -29h-1q-13 27 -24 47.5l-19 34.5l-162 278h-177z
" />
    <glyph glyph-name="n" unicode="n" horiz-adv-x="716" 
d="M204 262q0 91 -2 159.5t-4 116.5l39 -89.5t33 -67.5l203 -381h183v730h-140v-226q0 -104 2 -180.5t6 -124.5q-20 43 -42 85.5l-44 85.5l-192 360h-220q17 -9 28 -44q5 -14 7.5 -30t2.5 -30v-522q0 -15 -2.5 -30.5t-7.5 -29.5q-5 -16 -12.5 -27.5t-15.5 -16.5h178v262z
" />
    <glyph glyph-name="o" unicode="o" horiz-adv-x="754" 
d="M175 363q0 120 63 190q58 64 139 64q79 0 138 -64q64 -70 64 -189q0 -117 -64 -189q-58 -64 -138 -64t-137 64q-32 35 -48.5 82t-16.5 106zM376 740q-141 0 -238 -94q-108 -105 -108 -281q0 -178 108 -281q99 -96 238 -96q140 0 240 95q108 105 108 281q0 175 -108 281
q-98 95 -240 95z" />
    <glyph glyph-name="p" unicode="p" horiz-adv-x="542" 
d="M26 730q18 -9 29 -44q5 -14 7.5 -29.5t2.5 -30.5v-521q0 -32 -13 -64q-5 -14 -12 -25t-13 -16h178v252h28q134 0 211 74q73 69 73 179q0 107 -73 166q-71 59 -205 59h-213zM205 615h30q137 0 137 -119q0 -58 -41 -93q-40 -34 -105 -34h-21v246z" />
    <glyph glyph-name="q" unicode="q" horiz-adv-x="760" 
d="M591 94q41 26 79 86q54 84 54 185q0 175 -108 281q-98 95 -240 95q-141 0 -238 -95q-108 -105 -108 -281q0 -85 24.5 -153t75.5 -119q45 -46 101.5 -72.5t126.5 -31.5q44 -3 79.5 -5t64.5 -2t91 4t158 12l49 121q-37 -8 -89.5 -15t-119.5 -10zM175 363q0 120 63 190
q58 64 139 64q79 0 138 -64q64 -70 64 -189q0 -117 -64 -189q-58 -64 -138 -64t-137 64q-32 35 -48.5 82t-16.5 106z" />
    <glyph glyph-name="r" unicode="r" horiz-adv-x="568" 
d="M422 280q-20 36 -37 44q57 18 95 71q39 54 39 131q0 204 -263 204h-230q18 -9 29 -44q5 -14 7.5 -29.5t2.5 -29.5v-521q0 -16 -3.5 -32.5t-8.5 -31.5q-11 -31 -26 -42h178v299h19q30 0 47 -36l124 -263h173zM205 617h37q131 0 131 -105q0 -52 -37 -81q-36 -30 -98 -30
h-33v216z" />
    <glyph glyph-name="s" unicode="s" horiz-adv-x="490" 
d="M184 -7q131 0 203 63q68 60 68 165q0 87 -49 139q-16 17 -42.5 33t-62.5 31q-34 14 -56 24.5t-31 17.5q-38 27 -38 71q0 40 30 63q31 22 87 22q33 -1 66 -7t65 -17v123q-36 8 -67 11.5t-55 4.5q-122 5 -194 -54q-72 -58 -72 -156q0 -102 59 -153q16 -13 45 -29t74 -33
q25 -10 42.5 -20t28.5 -18q29 -26 29 -68q0 -92 -125 -92q-107 0 -159 21l54 -129q21 -13 100 -13z" />
    <glyph glyph-name="t" unicode="t" horiz-adv-x="558" 
d="M340 611h160l48 119h-528v-119h183v-611h137v611z" />
    <glyph glyph-name="u" unicode="u" horiz-adv-x="684" 
d="M57 255q0 -263 276 -263q150 0 226 76q70 69 70 189v473h-140v-467q0 -155 -146 -155q-82 0 -116 42q-30 39 -30 114v466h-176q13 -10 24 -40q12 -32 12 -66v-369z" />
    <glyph glyph-name="v" unicode="v" horiz-adv-x="671" 
d="M262 0h157l247 730h-148l-135 -431l-24 -81t-15 -58h-2q-11 48 -21.5 82.5l-17.5 57.5l-137 430h-178q18 -11 34 -37t30 -67z" />
    <glyph glyph-name="w" unicode="w" horiz-adv-x="919" 
d="M764 730l-95 -401q-6 -27 -12.5 -61.5t-11.5 -76.5h-1q-10 41 -19 69.5l-14 45.5l-103 306h-85l-107 -305q-9 -27 -16.5 -56.5t-12.5 -59.5h-2q-4 37 -10 71.5t-14 66.5l-97 401h-176q35 -25 55 -104l154 -626h136l109 296q8 22 13.5 45t9.5 48q4 -21 9 -44.5t13 -47.5
l90 -297h156l181 730h-150z" />
    <glyph glyph-name="x" unicode="x" horiz-adv-x="655" 
d="M20 0h160l152 270l151 -270h172l-232 375l208 355h-155l-142 -252l-144 252h-180q18 -10 39 -36t45 -67l150 -253z" />
    <glyph glyph-name="y" unicode="y" horiz-adv-x="596" 
d="M229 259v-259h137v260l225 470h-146l-96 -210l-29 -65.5t-21 -54.5h-1q-10 29 -22 59.5t-26 61.5l-94 209h-168q10 -5 19.5 -17t19.5 -28q5 -7 11.5 -21.5t16.5 -34.5z" />
    <glyph glyph-name="Z" unicode="Z" horiz-adv-x="531" 
d="M35 0l443 1l48 120l-201 -1h-55h-36q-14 0 -22.5 -0.5t-15.5 -1.5q10 13 21.5 30t19.5 30l269 440v112h-455v-118h191h43t28.5 0.5t20 1t17.5 0.5q-13 -17 -24 -33.5t-22 -35.5l-270 -439v-106z" />
    <glyph glyph-name="z" unicode="z" horiz-adv-x="531" 
d="M35 0l443 1l48 120l-201 -1h-55h-36q-14 0 -22.5 -0.5t-15.5 -1.5q10 13 21.5 30t19.5 30l269 440v112h-455v-118h191h43t28.5 0.5t20 1t17.5 0.5q-13 -17 -24 -33.5t-22 -35.5l-270 -439v-106z" />
    <glyph glyph-name="parenleft" unicode="(" horiz-adv-x="400" 
d="M347 805h-114q-22 -32 -43.5 -74.5t-39 -96.5t-29 -120t-11.5 -145q0 -78 11 -144t28.5 -120t39.5 -96.5t44 -73.5h114q-45 75 -77 182.5t-32 250.5q0 146 31.5 254t77.5 183z" />
    <glyph glyph-name="parenright" unicode=")" horiz-adv-x="400" 
d="M53 -65h114q21 31 43 73.5t39.5 96.5t29 120t11.5 145t-11 145t-29 120t-40 96.5t-43 73.5h-114q45 -75 77 -183t32 -252q0 -72 -8.5 -135t-23.5 -117t-35 -100t-42 -83z" />
    <glyph glyph-name="greater" unicode="&#x3e;" horiz-adv-x="518" 
d="M518 316v99l-518 237v-114l400 -172v-2l-400 -171v-115z" />
    <glyph glyph-name="less" unicode="&#x3c;" horiz-adv-x="518" 
d="M0 316v99l518 237v-114l-400 -172v-2l400 -171v-115z" />
    <glyph glyph-name="semicolon" unicode=";" horiz-adv-x="300" 
d="M85 414v-130h130v130h-130zM92 -113q34 48 66 108.5t61 134.5h-134q-15 -65 -35.5 -125.5t-45.5 -117.5h88z" />
    <glyph glyph-name="A" unicode="A" horiz-adv-x="691" 
d="M312 444q11 33 19 63t13 58h1q5 -29 13 -59.5t18 -59.5l63 -187h-188zM686 0q-14 10 -28 35t-28 67l-213 628h-143l-213 -628q-28 -85 -56 -102h166l47 148h255l48 -148h165z" />
    <glyph glyph-name="P" unicode="P" horiz-adv-x="542" 
d="M26 730q18 -9 29 -44q5 -14 7.5 -29.5t2.5 -30.5v-521q0 -32 -13 -64q-5 -14 -12 -25t-13 -16h178v252h28q134 0 211 74q73 69 73 179q0 107 -73 166q-71 59 -205 59h-213zM205 615h30q137 0 137 -119q0 -58 -41 -93q-40 -34 -105 -34h-21v246z" />
  </font>
</defs>
</svg>
